# xmcd
#
# Track frame offsets:
#	150
#	17298
#	43843
#	61612
#	79170
#	90424
#	106644
#	118916
#	128314
#	147874
#	164091
#	182501
#	196834
#	212546
#	229702
#	251361
#	263280
#	280151
#	288850
#	312099
#	324982
#
# Disc length: 4645 seconds
#
# Revision: 1
# Processed by: cddbd v1.5.2PL0 Copyright (c) Steve Scherf et al.
# Submitted via: EasyCDDAExtractor 10.0.6.1
#
DISCID=05122315
DTITLE=EMMANUEL - SERIE PLATINO-20 EXITOS
DYEAR=1900
DGENRE=
TTITLE0=DETENEDLA YA
TTITLE1=LA ULTIMA LUNA
TTITLE2=VAMOS A AMARNOS DESPACIO
TTITLE3=ESA TRISTE GUITARRA
TTITLE4=MI HERMANO
TTITLE5=ES MI MUJER
TTITLE6=ANTES DE COMENZAR
TTITLE7=RONDA EL AMOR
TTITLE8=EL REY AZUL
TTITLE9=AL FINAL
TTITLE10=POBRE DIABLO
TTITLE11=CON QUE DERECHO
TTITLE12=SEGUIA LLOVIENDO AFUERA
TTITLE13=QUIERO DORMIR CANSADO
TTITLE14=TODA LA VIDA (TUTTA LA VITA)
TTITLE15=LA INFANCIA
TTITLE16=TENGO MUCHO QUE APRENDER DE TI
TTITLE17=VOLAR PAJAROS, VOLAR
TTITLE18=TODO SE DERRUMBO DENTRO DE MI
TTITLE19=HAN BAJADO LAS HORAS
TTITLE20=LA VIDA DECIDIO
EXTD=
EXTT0=
EXTT1=
EXTT2=
EXTT3=
EXTT4=
EXTT5=
EXTT6=
EXTT7=
EXTT8=
EXTT9=
EXTT10=
EXTT11=
EXTT12=
EXTT13=
EXTT14=
EXTT15=
EXTT16=
EXTT17=
EXTT18=
EXTT19=
EXTT20=
PLAYORDER=
